<svg width="15" height="22" viewBox="0 0 15 22" fill="none" xmlns="http://www.w3.org/2000/svg">
<path fill-rule="evenodd" clip-rule="evenodd" d="M7.63379 11.4861C7.63379 9.55325 9.20071 7.98633 11.1336 7.98633C13.0665 7.98633 14.6334 9.55325 14.6334 11.4861C14.6334 13.419 13.0665 14.986 11.1336 14.986C9.20071 14.986 7.63379 13.419 7.63379 11.4861Z" fill="#1ABCFE"/>
<path fill-rule="evenodd" clip-rule="evenodd" d="M0.634033 18.4857C0.634033 16.5528 2.20096 14.9858 4.13385 14.9858L7.63368 14.9858L7.63368 18.4857C7.63368 20.4186 6.06675 21.9855 4.13385 21.9855C2.20096 21.9855 0.634033 20.4186 0.634033 18.4857Z" fill="#0ACF83"/>
<path fill-rule="evenodd" clip-rule="evenodd" d="M7.63379 0.986572L7.63379 7.98621L11.1336 7.98621C13.0665 7.98621 14.6334 6.41929 14.6334 4.48639C14.6334 2.5535 13.0665 0.986572 11.1336 0.986572L7.63379 0.986572Z" fill="#FF7262"/>
<path fill-rule="evenodd" clip-rule="evenodd" d="M0.634033 4.48639C0.634033 6.41929 2.20096 7.98621 4.13385 7.98621H7.63367L7.63367 0.986572L4.13385 0.986572C2.20096 0.986572 0.634033 2.5535 0.634033 4.48639Z" fill="#F24E1E"/>
<path fill-rule="evenodd" clip-rule="evenodd" d="M0.634033 11.4861C0.634033 13.419 2.20096 14.986 4.13385 14.986H7.63368L7.63368 7.98633H4.13385C2.20096 7.98633 0.634033 9.55325 0.634033 11.4861Z" fill="#A259FF"/>
</svg>
