<svg width="21" height="22" viewBox="0 0 21 22" fill="none" xmlns="http://www.w3.org/2000/svg">
<path d="M0.30249 7.86251C0.30249 5.24498 0.30249 3.93621 0.811898 2.93644C1.25999 2.05702 1.97499 1.34202 2.85441 0.893929C3.85418 0.384521 5.16295 0.384521 7.78048 0.384521H13.4874C16.105 0.384521 17.4138 0.384521 18.4135 0.893929C19.2929 1.34202 20.0079 2.05702 20.456 2.93644C20.9654 3.93621 20.9654 5.24498 20.9654 7.86251V13.5695C20.9654 16.187 20.9654 17.4958 20.456 18.4955C20.0079 19.3749 19.2929 20.09 18.4135 20.538C17.4138 21.0475 16.105 21.0475 13.4874 21.0475H7.78048C5.16295 21.0475 3.85418 21.0475 2.85441 20.538C1.97499 20.09 1.25999 19.3749 0.811898 18.4955C0.30249 17.4958 0.30249 16.187 0.30249 13.5695V7.86251Z" fill="#330000"/>
<path d="M10.3149 13.3698H7.11292L6.46144 15.4454C6.44336 15.5226 6.37237 15.5772 6.29511 15.5733H4.67332C4.58083 15.5733 4.54849 15.5212 4.57629 15.417L7.34855 7.22808C7.37629 7.14277 7.40404 7.04566 7.43172 6.93666C7.46802 6.74693 7.48655 6.55417 7.48721 6.3609C7.47924 6.30378 7.52942 6.25334 7.58418 6.26134H9.78818C9.85275 6.26134 9.88965 6.28504 9.89902 6.33242L13.0456 15.4312C13.0733 15.526 13.0456 15.5734 12.9624 15.5733H11.1604C11.0972 15.5806 11.0369 15.5372 11.0218 15.4739L10.3149 13.3698ZM7.61193 11.5784H9.80205C9.44222 10.3488 9.03612 9.13542 8.70699 7.89631C8.35188 9.13756 7.96445 10.3738 7.61193 11.5784Z" fill="#FF9A00"/>
<path d="M14.9175 7.76822C14.7761 7.77405 14.6351 7.74918 14.5037 7.69531C14.3723 7.64143 14.2535 7.55967 14.1551 7.45547C14.0569 7.34669 13.9806 7.21917 13.9307 7.08007C13.8807 6.94104 13.8581 6.79322 13.864 6.64511C13.8589 6.49848 13.8841 6.35244 13.9378 6.21647C13.9916 6.08051 14.0727 5.9577 14.1759 5.85607C14.278 5.75549 14.3986 5.67669 14.5307 5.62423C14.6627 5.57176 14.8036 5.54668 14.9451 5.55041C15.2779 5.55041 15.5389 5.6523 15.7283 5.85607C15.824 5.96197 15.8983 6.08617 15.9471 6.22156C15.9958 6.35694 16.0181 6.50091 16.0125 6.64511C16.0183 6.79374 15.9949 6.94214 15.9437 7.08132C15.8925 7.2205 15.8145 7.34773 15.7145 7.45547C15.6099 7.56122 15.485 7.64357 15.3479 7.69745C15.2107 7.75124 15.0642 7.77538 14.9175 7.76822ZM13.961 15.4311V8.63547C13.961 8.55016 13.9978 8.50751 14.0719 8.50751H15.7769C15.8507 8.50751 15.8877 8.55016 15.8877 8.63547V15.4311C15.8877 15.526 15.8508 15.5733 15.7769 15.5733H14.0858C14.0026 15.5733 13.961 15.5259 13.961 15.4311Z" fill="#FF9A00"/>
</svg>
