<svg width="28" height="24" viewBox="0 0 28 24" fill="none" xmlns="http://www.w3.org/2000/svg">
<path d="M0.614014 21.2322C0.614014 22.2194 1.42054 23.019 2.41425 23.019H2.44013C1.4312 23.019 0.614014 22.2194 0.614014 21.2322Z" fill="#FBBC05"/>
<path d="M16.0844 7.38391V12.049L22.3738 6.97592V2.47017C22.3738 1.48295 21.5673 0.68335 20.5736 0.68335L6.94772 0.68335L6.93555 7.38391L16.0844 7.38391Z" fill="#FBBC05"/>
<path d="M16.0846 16.7159H6.92057L6.90991 23.0189H20.5738C21.569 23.0189 22.3741 22.2193 22.3741 21.232V17.1641L16.0846 12.0508V16.7159Z" fill="#34A853"/>
<path d="M6.94759 0.68335L0.614014 7.38391L6.93693 7.38391L6.94759 0.68335Z" fill="#EA4335"/>
<path d="M0.614014 16.7156L0.614014 21.2318C0.614014 22.219 1.4312 23.0186 2.44013 23.0186H6.90954L6.9202 16.7156H0.614014Z" fill="#1967D2"/>
<path d="M6.93693 7.38379L0.614014 7.38379L0.614014 16.7154H6.9202L6.93693 7.38379Z" fill="#4285F4"/>
<path d="M27.9038 19.6434L27.9038 4.30656C27.5492 2.27108 25.3168 4.60437 25.3168 4.60437L22.3752 6.97637L22.3752 17.1627L26.586 20.586C28.1062 20.7855 27.9038 19.6434 27.9038 19.6434Z" fill="#34A853"/>
<path d="M16.0842 12.0491L22.3752 17.1639V6.97754L16.0842 12.0491Z" fill="#188038"/>
</svg>
