<svg width="25" height="26" viewBox="0 0 25 26" fill="none" xmlns="http://www.w3.org/2000/svg">
<path d="M4.52045 4.79601C5.29163 5.42246 5.58107 5.37491 7.03038 5.27774L20.6913 4.45798C20.9807 4.45798 20.7398 4.16853 20.6437 4.12098L18.3736 2.48043C17.9394 2.14344 17.3595 1.75682 16.2493 1.85295L3.02256 2.81847C2.54084 2.86602 2.44367 3.10792 2.63595 3.30019L4.52045 4.79601ZM5.34021 7.97994L5.34021 22.3531C5.34021 23.1253 5.7258 23.4147 6.59517 23.3661L21.6082 22.4978C22.4776 22.4502 22.5747 21.9189 22.5747 21.2914L22.5747 7.01442C22.5747 6.38798 22.3339 6.04994 21.8015 6.09749L6.11242 7.01442C5.53352 7.06301 5.34021 7.35349 5.34021 7.97994ZM20.161 8.75007C20.2571 9.18424 20.161 9.61841 19.7268 9.66803L19.0032 9.81276L19.0032 20.4231C18.3746 20.7611 17.7958 20.9544 17.313 20.9544C16.5398 20.9544 16.3464 20.7125 15.7676 19.9899L11.0361 12.5615L11.0361 19.748L12.533 20.0871C12.533 20.0871 12.533 20.9555 11.3256 20.9555L7.99486 21.1477C7.89872 20.9555 7.99486 20.4727 8.33289 20.3766L9.20123 20.1357L9.20123 10.6325L7.99692 10.5353C7.89975 10.1012 8.14165 9.47473 8.81668 9.42614L12.3893 9.18528L17.314 16.7099L17.314 10.0526L16.058 9.9089C15.9619 9.37755 16.3475 8.99197 16.8302 8.94442L20.161 8.75007ZM1.91233 1.51595L15.6714 0.502888C17.3605 0.358165 17.7958 0.454303 18.8574 1.22651L23.2498 4.31326C23.9734 4.84357 24.2153 4.98829 24.2153 5.56718L24.2153 22.4978C24.2153 23.5584 23.8297 24.1869 22.4786 24.282L6.49903 25.2475C5.48597 25.2961 5.00218 25.1514 4.47083 24.4753L1.23626 20.2784C0.657365 19.5061 0.416504 18.9283 0.416504 18.2522L0.416504 3.20302C0.416504 2.33571 0.803123 1.61106 1.91233 1.51595Z" fill="black"/>
</svg>
