<svg width="21" height="21" viewBox="0 0 21 21" fill="none" xmlns="http://www.w3.org/2000/svg">
<path d="M0.0322266 7.63253C0.0322266 5.015 0.0322266 3.70623 0.541635 2.70646C0.989725 1.82704 1.70472 1.11204 2.58414 0.663949C3.58391 0.154541 4.89269 0.154541 7.51022 0.154541H13.2172C15.8347 0.154541 17.1435 0.154541 18.1432 0.663949C19.0227 1.11204 19.7377 1.82704 20.1858 2.70646C20.6952 3.70623 20.6952 5.015 20.6952 7.63253V13.3395C20.6952 15.957 20.6952 17.2658 20.1858 18.2655C19.7377 19.145 19.0227 19.86 18.1432 20.3081C17.1435 20.8175 15.8347 20.8175 13.2172 20.8175H7.51022C4.89269 20.8175 3.58391 20.8175 2.58414 20.3081C1.70472 19.86 0.989725 19.145 0.541635 18.2655C0.0322266 17.2658 0.0322266 15.957 0.0322266 13.3395V7.63253Z" fill="#001E36"/>
<path d="M4.46021 15.2948V6.20845C4.46021 6.14668 4.48603 6.11134 4.5463 6.11134C5.43601 6.11134 6.32533 6.05835 7.21524 6.05835C8.65936 6.05835 10.223 6.55212 10.771 8.0628C10.9002 8.4337 10.969 8.81338 10.969 9.21078C10.969 9.97021 10.7969 10.5971 10.4525 11.0916C9.49045 12.4729 7.8231 12.4515 6.3285 12.4515V15.286C6.34016 15.37 6.26865 15.4097 6.19936 15.4097H4.56352C4.49465 15.4097 4.46021 15.3743 4.46021 15.2948ZM6.33706 7.81559V10.7826C6.92972 10.826 7.54983 10.8307 8.11924 10.6413C8.74791 10.4599 9.09217 9.91583 9.09217 9.26376C9.10959 8.70815 8.80688 8.17505 8.29148 7.97454C7.72893 7.74061 6.94433 7.72659 6.33706 7.81559Z" fill="#31A8FF"/>
<path d="M16.3389 10.1965C16.0784 10.0592 15.8009 9.95876 15.5141 9.89795C15.1456 9.81124 13.6919 9.5075 13.6913 10.2676C13.7042 10.6919 14.3778 10.8998 14.6755 11.0211C15.7203 11.3798 16.9027 12.021 16.8795 13.31C16.9114 14.9146 15.3567 15.5561 14.024 15.5563C13.3302 15.5634 12.6075 15.456 11.9725 15.1581C11.9119 15.126 11.8729 15.0575 11.8755 14.9875V13.4521C11.8686 13.3906 11.9348 13.3368 11.9864 13.3811C12.6085 13.7573 13.3459 13.94 14.0656 13.9497C14.3833 13.9497 15.0129 13.919 15.0082 13.4521C15.0082 13.0042 14.255 12.7982 13.9547 12.6844C13.5195 12.5291 13.1068 12.3138 12.728 12.0447C12.1986 11.6671 11.8665 11.0616 11.8755 10.3956C11.8724 8.88466 13.3035 8.20647 14.5924 8.20617C15.1948 8.20116 15.8419 8.2458 16.4027 8.49051C16.4834 8.5142 16.5001 8.59921 16.4998 8.6753V10.1112C16.5049 10.2004 16.4059 10.2307 16.3389 10.1965Z" fill="#31A8FF"/>
</svg>
