<svg width="22" height="22" viewBox="0 0 22 22" fill="none" xmlns="http://www.w3.org/2000/svg">
<path d="M0.364258 7.86251C0.364258 5.24498 0.364258 3.93621 0.873666 2.93644C1.32176 2.05702 2.03675 1.34202 2.91618 0.893929C3.91594 0.384521 5.22472 0.384521 7.84225 0.384521H13.5492C16.1668 0.384521 17.4755 0.384521 18.4753 0.893929C19.3547 1.34202 20.0697 2.05702 20.5178 2.93644C21.0272 3.93621 21.0272 5.24498 21.0272 7.86251V13.5695C21.0272 16.187 21.0272 17.4958 20.5178 18.4955C20.0697 19.3749 19.3547 20.09 18.4753 20.538C17.4755 21.0475 16.1668 21.0475 13.5492 21.0475H7.84225C5.22472 21.0475 3.91594 21.0475 2.91618 20.538C2.03675 20.09 1.32176 19.3749 0.873666 18.4955C0.364258 17.4958 0.364258 16.187 0.364258 13.5695V7.86251Z" fill="#00005B"/>
<path d="M4.79175 14.9928V5.70352C4.79175 5.64032 4.81765 5.60421 4.8781 5.60421C5.77046 5.60421 6.66241 5.55005 7.55505 5.55005C9.00337 5.55005 10.5717 6.05484 11.1214 7.5993C11.2509 7.97846 11.32 8.36663 11.32 8.77288C11.32 9.54921 11.1473 10.1901 10.8019 10.6957C9.83705 12.1079 8.16468 12.086 6.66558 12.086V14.9837C6.67731 15.0695 6.60559 15.1101 6.53607 15.1101H4.89537C4.82629 15.1101 4.79175 15.074 4.79175 14.9928ZM6.67422 7.34654V10.3797C7.26864 10.4241 7.8906 10.4289 8.46171 10.2353C9.09222 10.0499 9.43751 9.49365 9.43751 8.82704C9.45508 8.25903 9.15141 7.71398 8.63446 7.50904C8.07022 7.26987 7.28333 7.25555 6.67422 7.34654Z" fill="#9999FF"/>
<path d="M12.4906 7.92004H14.0061C14.0896 7.92085 14.1647 7.98114 14.1867 8.06541C14.2978 8.32318 14.3115 8.63409 14.3119 8.91237C14.5718 8.59601 14.8852 8.33248 15.2364 8.13478C15.6132 7.91199 16.0402 7.79901 16.473 7.80779C16.5448 7.79702 16.6084 7.86351 16.5981 7.93856V9.6972C16.5981 9.76516 16.5516 9.79896 16.4591 9.79896C15.8176 9.75269 14.819 9.91113 14.3529 10.4385V15.0112C14.3529 15.0984 14.3159 15.142 14.2417 15.142H12.6158C12.5359 15.154 12.4654 15.0789 12.4767 14.9967V10.0315C12.4767 9.36622 12.4905 8.68088 12.3933 8.0218C12.3784 7.96114 12.4339 7.90476 12.4906 7.92004Z" fill="#9999FF"/>
</svg>
