<svg width="26" height="26" viewBox="0 0 26 26" fill="none" xmlns="http://www.w3.org/2000/svg">
<path fill-rule="evenodd" clip-rule="evenodd" d="M3.56377 0.25293C2.01745 0.25293 0.763916 1.50647 0.763916 3.05279L0.763916 22.6518C0.763916 24.1981 2.01745 25.4516 3.56377 25.4516L23.1628 25.4516C24.7091 25.4516 25.9626 24.1981 25.9626 22.6518L25.9626 3.05279C25.9626 1.50647 24.7091 0.25293 23.1628 0.25293L3.56377 0.25293Z" fill="white"/>
<path fill-rule="evenodd" clip-rule="evenodd" d="M3.56377 0.25293C2.01745 0.25293 0.763916 1.50647 0.763916 3.05279L0.763916 22.6518C0.763916 24.1981 2.01745 25.4516 3.56377 25.4516L23.1628 25.4516C24.7091 25.4516 25.9626 24.1981 25.9626 22.6518L25.9626 3.05279C25.9626 1.50647 24.7091 0.25293 23.1628 0.25293L3.56377 0.25293ZM18.1244 10.5329C18.1244 10.5329 16.7623 14.6472 16.651 14.9869C16.308 12.4084 15.9617 9.83029 15.6123 7.25257C13.2912 7.25257 12.0501 8.84353 11.3943 10.5228L9.59886 14.997C9.58836 14.6762 9.34688 10.5713 9.34688 10.5713C9.20408 8.51388 7.24698 7.26133 5.66367 7.26133L7.58087 18.452C10.0125 18.4419 11.3236 16.8604 12.0102 15.1811C12.0102 15.1811 13.4732 11.5421 13.5334 11.3769C13.5439 11.532 14.5833 18.4513 14.5833 18.4513C17.0248 18.4513 18.3365 16.9669 19.0421 15.3463L22.4628 7.26201C20.0514 7.26201 18.7803 8.84421 18.1244 10.5329Z" fill="#4353FF"/>
</svg>
