<svg width="25" height="25" viewBox="0 0 25 25" fill="none" xmlns="http://www.w3.org/2000/svg">
<path d="M2.13859 12.2497C2.13859 16.3413 4.51847 19.8653 7.96013 21.5404L3.03562 8.04834C2.44429 9.37008 2.13862 10.8017 2.13859 12.2497ZM12.4636 22.5747C13.6627 22.5747 14.816 22.3642 15.8961 21.9889L15.8229 21.8516L12.6467 13.1559L9.55282 22.1537C10.4682 22.4283 11.4476 22.5747 12.4636 22.5747ZM13.8824 7.40758L17.6169 18.5106L18.6513 15.069C19.0907 13.6411 19.4293 12.6159 19.4293 11.728C19.4293 10.4465 18.9717 9.5678 18.5872 8.89044C18.0563 8.03002 17.5712 7.30692 17.5712 6.4648C17.5712 5.51284 18.2851 4.63412 19.3103 4.63412H19.4385C17.536 2.88758 15.0462 1.92042 12.4636 1.92472C10.7536 1.9244 9.0703 2.34919 7.56519 3.16086C6.06006 3.97254 4.78033 5.14563 3.84111 6.57463L4.50017 6.59295C5.58025 6.59295 7.24617 6.45563 7.24617 6.45563C7.81367 6.42819 7.87776 7.24283 7.3194 7.30692C7.3194 7.30692 6.76105 7.38014 6.12946 7.40758L9.90066 18.593L12.1615 11.8195L10.5505 7.40758C10.1897 7.38769 9.8295 7.35715 9.47045 7.31605C8.91208 7.27945 8.97617 6.42819 9.53452 6.45563C9.53452 6.45563 11.2371 6.59295 12.2531 6.59295C13.3332 6.59295 14.9991 6.45563 14.9991 6.45563C15.5574 6.42819 15.6307 7.24283 15.0723 7.30692C15.0723 7.30692 14.514 7.37098 13.8824 7.40758ZM17.6536 21.1743C19.2155 20.2661 20.5118 18.9638 21.4129 17.3978C22.314 15.8317 22.7884 14.0566 22.7886 12.2497C22.7886 10.4557 22.3309 8.77144 21.5254 7.29775C21.689 8.91907 21.4435 10.5555 20.8115 12.0575L17.6536 21.1743ZM12.4636 24.1491C9.30769 24.1491 6.28103 22.8954 4.04947 20.6639C1.81789 18.4323 0.564209 15.4056 0.564209 12.2497C0.564209 9.09382 1.81789 6.06717 4.04947 3.8356C6.28103 1.60402 9.30769 0.350342 12.4636 0.350342C15.6195 0.350342 18.6462 1.60402 20.8777 3.8356C23.1093 6.06717 24.363 9.09382 24.363 12.2497C24.363 15.4056 23.1093 18.4323 20.8777 20.6639C18.6462 22.8954 15.6195 24.1491 12.4636 24.1491Z" fill="#126FC2"/>
</svg>
