<svg width="29" height="29" viewBox="0 0 29 29" fill="none" xmlns="http://www.w3.org/2000/svg">
<g clip-path="url(#clip0_15_297)">
<path d="M14.366 28.8514C22.0976 28.8514 28.3653 22.5837 28.3653 14.8521C28.3653 7.12048 22.0976 0.852783 14.366 0.852783C6.63439 0.852783 0.366699 7.12048 0.366699 14.8521C0.366699 22.5837 6.63439 28.8514 14.366 28.8514Z" fill="#FF4A00"/>
<path d="M16.1155 14.8549C16.1156 15.3593 16.0246 15.8595 15.8467 16.3314C15.3744 16.5099 14.8736 16.6015 14.3686 16.6018H14.3626C13.8583 16.6019 13.3581 16.5108 12.8861 16.3331C12.7076 15.8607 12.616 15.3599 12.6157 14.8549V14.8489C12.6158 14.3446 12.7068 13.8444 12.8845 13.3724C13.3568 13.1939 13.8576 13.1023 14.3626 13.102H14.3686C14.8735 13.1018 15.3743 13.193 15.8467 13.3711C16.0246 13.843 16.1156 14.3432 16.1155 14.8476V14.8536V14.8549ZM21.2679 13.6852H17.1819L20.0711 10.7962C19.8442 10.478 19.5911 10.1792 19.3146 9.90297C19.0383 9.62679 18.7395 9.3741 18.4213 9.1475L15.5323 12.0357V7.94963C15.148 7.88508 14.7591 7.85252 14.3694 7.85229H14.3621C13.9724 7.85252 13.5834 7.88508 13.1992 7.94963V12.0357L10.3099 9.14641C9.99166 9.37335 9.69287 9.62641 9.41664 9.90297C9.14057 10.1791 8.88796 10.4777 8.66145 10.7957L11.5493 13.6852H7.46331C7.46331 13.6852 7.36597 14.4527 7.36597 14.8495V14.8544C7.36613 15.2445 7.39869 15.6339 7.46331 16.0186H11.5493L8.66008 18.9076C9.11442 19.5455 9.67203 20.1031 10.3099 20.5575L13.1989 17.6682V21.7542C13.5828 21.8187 13.9714 21.8513 14.3607 21.8516H14.3708C14.76 21.8512 15.1485 21.8187 15.5323 21.7542V17.6682L18.4213 20.5575C18.7396 20.3305 19.0383 20.0775 19.3146 19.8009C19.5908 19.5246 19.8436 19.2258 20.0703 18.9076L17.1819 16.0186H21.2679C21.3324 15.6347 21.3649 15.2461 21.3653 14.8569V14.8467C21.3649 14.4576 21.3324 14.0691 21.2679 13.6852Z" fill="white"/>
</g>
<defs>
<clipPath id="clip0_15_297">
<rect width="27.9986" height="27.9986" fill="white" transform="translate(0.366699 0.852783)"/>
</clipPath>
</defs>
</svg>
